<?xml version="1.0" encoding="utf-8"?>
<!-- Generator: Adobe Illustrator 25.4.1, SVG Export Plug-In . SVG Version: 6.00 Build 0)  -->
<svg version="1.1" id="Layer_1" xmlns="http://www.w3.org/2000/svg" xmlns:xlink="http://www.w3.org/1999/xlink" x="0px" y="0px"
	 viewBox="0 0 115 35" style="enable-background:new 0 0 115 35;" xml:space="preserve">
<style type="text/css">
	.st0{fill:#192133;}
	.st1{fill:#FFFFFF;}
	.st2{fill:url(#SVGID_1_);}
	.st3{fill-rule:evenodd;clip-rule:evenodd;fill:#FFFFFF;}
</style>
<rect x="-0.7" y="0.1" class="st0" width="115.7" height="35.2"/>
<g>
	<g>
		<path class="st1" d="M29,23.2L29,23.2c0.6,0.1,1.1,0.2,1.5,0.4c0.4,0.2,0.6,0.4,0.8,0.7c0.3,0.6,0.3,1.4,0,2
			c-0.2,0.4-0.7,0.8-1.1,1c-0.4,0.2-0.9,0.3-1.3,0.4c-0.9,0.1-1.7-0.1-2.5-0.5c-0.5-0.2-1-0.6-1.3-1.1c-0.2-0.4-0.2-0.8,0-1.2
			c0.4-0.5,1.2-0.7,1.9-0.6c0.5,0,1.4,0.2,1.8,0.3c0.1,0,0.6,0.2,0.7,0.3c0.1,0.1,0.1,0.1,0.1,0.2c-0.1,0.3-0.9,0.5-1.1,0.5
			c-0.6,0.1-0.9-0.1-1.6-0.4c-0.2-0.1-0.4-0.1-0.6-0.2c-0.3,0-0.7,0.1-0.8,0.4c0,0.2,0.2,0.3,0.3,0.4c0.3,0.1,0.7,0.2,1,0.2
			c1.1,0,2.3-0.2,3.2-0.8c0.1-0.1,0.2-0.2,0.2-0.4c0-0.3-0.6-0.5-0.6-0.5c-0.6-0.2-1.7-0.4-2.3-0.4c-0.6-0.1-1.5-0.1-1.7-0.2
			c-0.2,0-0.5-0.1-0.7-0.2c-0.2-0.1-0.4-0.3-0.5-0.5c-0.1-0.4,0-0.9,0.3-1.2c0.6-0.8,2-1.2,3-1.3c1-0.1,2.6-0.1,3.6,0.4
			c0.1,0.1,0.2,0.2,0.2,0.3c-0.1,0.3-0.3,0.5-0.6,0.6c-0.3,0.1-0.9,0.1-1.1,0.1c-1.2,0.1-2.6,0-3.7,0.3c-0.1,0-0.2,0.1-0.3,0.1
			c-0.2,0.2,0.3,0.2,0.4,0.3c0,0,0,0,0.1,0L29,23.2C29,23.2,29,23.2,29,23.2z M22,17.9c0,0,0.2-0.3,0.4-0.5c0.4-0.5,0.8-0.9,1.2-1.3
			c0.1-0.1,0.3-0.2,0.3-0.2s-0.2,0-0.4,0c-0.3,0.1-0.7,0.4-1,0.5c-0.4,0.3-0.8,0.8-0.6,1.3C22,17.9,22,17.9,22,17.9L22,17.9z
			 M24.1,18.5c0.6,0,1.1-0.2,1.6-0.5c0.5-0.3,1.2-0.8,1.1-1.4c0-0.2-0.1-0.4-0.3-0.4c-0.2-0.1-0.3-0.1-0.6,0c-0.2,0-0.3,0.1-0.5,0.2
			c-0.6,0.3-1.4,1-1.8,1.6c-0.1,0.1-0.2,0.3-0.3,0.4c0,0.1-0.1,0.1-0.1,0.1C23.2,18.5,23.8,18.5,24.1,18.5L24.1,18.5L24.1,18.5z
			 M22.6,19.6c-0.1,0.1-0.1,0.2-0.2,0.3c0,0.1-0.1,0.1-0.1,0.2c-0.2,0.1-0.3,0.1-0.4,0c-0.2-0.2-0.3-0.5-0.3-0.7c0-0.1,0-0.2,0-0.4
			c0-0.2-0.2-0.3-0.3-0.5C21.1,18.2,21,18,21,17.7c0-0.7,0.3-1.3,0.8-1.8c0.5-0.5,1.1-0.9,1.7-1.2c0.6-0.3,1.5-0.4,2.2-0.2
			c0.3,0.1,0.5,0.3,0.7,0.5c0,0,0.1,0.1,0.1,0.1c0.1,0,0.1,0,0.2,0c0.2,0.1,0.5,0.2,0.7,0.3c0.3,0.2,0.4,0.4,0.5,0.7
			c0.1,0.6-0.2,1.3-0.6,1.7c-0.7,0.7-1.4,1.2-2.2,1.5c-0.4,0.1-1,0.3-1.4,0.3c-0.1,0-0.3,0-0.4-0.1C22.9,19.7,22.8,19.6,22.6,19.6
			C22.6,19.6,22.6,19.6,22.6,19.6C22.6,19.6,22.6,19.6,22.6,19.6z M23.4,20.9c0,0,0.1,0,0.1,0c0.3,0.1,0.4,0.4,0.5,0.7
			c0.2,0.7,0.3,2.3,0.3,3c0,0.5,0,0.9,0.1,1.4c0,0.4,0,0.9,0,1.3c0,0.1-0.1,0.3-0.2,0.4c-0.1,0.1-0.5,0.1-0.7,0.1
			c-0.5-0.1-0.6-0.4-0.7-0.8c-0.2-1.1-0.1-3.2,0-4c0-0.3,0.1-1.2,0.3-1.6C23.1,21.2,23.2,20.9,23.4,20.9L23.4,20.9L23.4,20.9z
			 M9.6,22.7c0,0-0.7,0-1.1,0.1c-0.6,0.1-1.7,0.3-2.3,0.5c-0.2,0.1-0.6,0.2-0.6,0.4c0,0.2,0.1,0.4,0.2,0.5c0.1,0.1,0.5,0.5,0.7,0.6
			C7,25.3,8.1,26,8.9,26.4c0.3,0.1,0.7,0.3,0.7,0.3s0-1.3,0-2.6C9.6,23.4,9.6,22.7,9.6,22.7C9.6,22.7,9.6,22.7,9.6,22.7z M22,23.2
			c0,0.4-0.1,1-0.1,1.1c0,0.2-0.1,0.5-0.2,0.7c-0.1,0.3-0.2,0.5-0.4,0.7c-0.3,0.5-0.6,0.9-1.1,1.3c-1.2,1-3,1.6-4.5,1.8
			c-1.1,0.1-2.2,0.1-3.4-0.1c-0.4-0.1-0.9-0.2-0.9-0.2s0,0.2,0,0.4c0,0.1-0.1,0.2-0.1,0.3c-0.1,0.2-0.2,0.3-0.4,0.3
			c-0.2,0-0.5,0.1-0.7,0c-0.4-0.1-0.5-0.5-0.5-0.9c-0.1-0.3-0.1-0.8-0.1-0.8s-0.3-0.1-0.5-0.2c-0.7-0.3-1.3-0.7-1.9-1.1
			c-0.2-0.1-0.8-0.7-1-0.8c-0.4-0.4-0.8-0.8-1.1-1.3C5,24,4.9,23.6,5.1,23.2c0.2-0.6,1.1-1,1.6-1.3c0.4-0.2,1.7-0.6,2.2-0.7
			c0.3,0,0.6-0.1,0.7-0.1c0,0,0,0,0,0c0,0,0-0.6,0-0.8c0-0.2,0.2-1.6,0.2-1.8c0-0.2,0.1-0.7,0.3-0.9c0.1-0.1,0.2-0.1,0.3,0
			c0.6,0.4,0.8,1.7,0.8,2.4c0,0.4,0,1,0,1s0.7,0,1.1,0c0.4,0,0.9,0.1,1.3,0.1c0.6,0.1,1.7,0.3,2.3,0.6c0.5,0.3,1,0.7,1.2,1.2
			c0.1,0.4,0.1,0.7-0.1,1.1c-0.2,0.4-0.7,0.8-1.2,0.8c-0.1,0-0.7-0.1-0.8-0.2c-0.1-0.1-0.1-0.1,0-0.2c0.1-0.1,0.3-0.2,0.4-0.2
			c0.1,0,0.1-0.1,0.2-0.1c0.1-0.1,0.2-0.2,0.2-0.4c0-0.2-0.2-0.3-0.4-0.4c-0.9-0.3-2.6-0.6-3.4-0.7c-0.3,0-0.8,0-0.8,0l0.1,4.6
			c0,0,0.4,0.1,0.7,0.1c0.2,0,0.9,0.1,1.1,0.1c1.5,0,3.1-0.1,4.5-0.7c0.6-0.3,1.1-0.6,1.6-1.1c0.6-0.7,0.8-1.5,0.8-2.4
			c-0.1-1-0.8-2.1-1.3-2.8c-1.4-1.9-3.9-3.4-6.1-4.3c-2.2-0.9-4.4-1.4-6.8-1.5c-0.6,0-1.9,0-2.6,0.2c-0.1,0-0.2,0.1-0.3,0.1
			c-0.1,0-0.1,0-0.2,0.1c0,0,0,0,0,0c0,0,0.1,0,0.1,0c0.1,0,0.4,0.1,0.5,0.1c0.1,0,0.3,0.1,0.3,0.2c0.1,0.1,0.1,0.2,0,0.3
			c-0.2,0.2-0.7,0.2-1,0.1c-0.3,0-0.6-0.1-0.6-0.4c-0.1-0.3,0.1-0.5,0.2-0.8c0.3-0.5,0.7-0.7,1.3-0.9c0.9-0.2,1.8-0.4,2.6-0.4
			c1.8-0.1,3.4,0.2,5.1,0.8c1.1,0.3,2.2,0.8,3.2,1.2c0.8,0.4,1.6,0.8,2.3,1.3c0.2,0.1,1.3,0.9,1.5,1.1c0.4,0.3,0.8,0.7,1.2,1
			c0.7,0.6,1.5,1.6,1.9,2.4c0.1,0.2,0.2,0.4,0.3,0.6c0.1,0.2,0.2,0.4,0.3,0.6c0,0.1,0.1,0.3,0.1,0.3C21.9,22.7,22,23.1,22,23.2z
			 M44.1,22.2c-0.8,0.2-3,0.3-3,0.3l-0.3,0.9c0,0,1.1-0.1,1.9,0c0,0,0.3,0,0.3,0.3c0,0.2,0,0.4,0,0.6c0,0,0,0.2-0.3,0.2
			c-0.3,0-2.3,0.1-2.3,0.1L40,25.7c0,0-0.1,0.3,0.2,0.2c0.3-0.1,2.4-0.5,2.7-0.4c0.3,0.1,0.6,0.5,0.5,0.8c-0.1,0.5-2.3,1.8-3.6,1.7
			c0,0-0.7,0-1.3-0.9c-0.5-0.9,0.2-2.5,0.2-2.5s-0.3-0.8-0.1-1c0,0,0.1-0.1,0.6-0.2l0.5-1.1c0,0-0.6,0-1-0.4
			c-0.3-0.4-0.4-0.6-0.1-0.7c0.3-0.1,2.8-0.6,4.5-0.5c0,0,0.6-0.1,1.1,1C44.3,21.7,44.6,22.1,44.1,22.2
			C44.1,22.2,44.1,22.2,44.1,22.2z M37.7,26.4c-0.2,0.5-0.8,1.1-1.5,0.7c-0.7-0.3-1.8-2.6-1.8-2.6s-0.4-0.9-0.5-0.8
			c0,0-0.1-0.2-0.2,0.8c-0.1,0.9,0,2.8-0.4,3c-0.4,0.3-0.8,0.2-1-0.2c-0.2-0.3-0.3-1.1-0.2-2.5c0.1-1.4,0.5-2.9,0.9-3.3
			c0.4-0.5,0.7-0.1,0.9,0c0,0,0.6,0.5,1.5,2l0.2,0.3c0,0,0.8,1.4,0.9,1.4c0,0,0.1,0.1,0.1,0c0.1,0,0.1-0.5,0.1-0.5s-0.2-1.5-0.9-4.1
			c-0.1-0.2-0.1-0.4,0-0.6c0.1-0.3,0.4-0.2,0.4-0.2s1.2,0.6,1.7,2.5C38.3,24.1,37.9,25.8,37.7,26.4C37.7,26.4,37.7,26.4,37.7,26.4z
			 M50.3,25.2c-0.5,0.9-2,2.9-4,2.4c-0.7,1.6-1.2,3.2-1.5,5.6c0,0-0.1,0.5-0.5,0.3c-0.4-0.1-1-0.8-1.2-1.7c-0.1-1.2,0.4-3.1,1.4-5.4
			c-0.3-0.5-0.5-1.2-0.3-2.2c0,0,0.3-1.9,2.2-3.6c0,0,0.2-0.2,0.4-0.1c0.1,0.1,0.1,0.7,0,1c-0.1,0.3-1,1.8-1,1.8s-0.5,1-0.4,1.8
			c1-1.5,3.3-4.6,4.7-3.7c0.5,0.3,0.7,1.1,0.7,1.9C50.8,23.9,50.6,24.7,50.3,25.2C50.3,25.2,50.3,25.2,50.3,25.2z M49.9,22.8
			c0,0-0.1-0.6-0.7,0.1c-0.5,0.6-1.4,1.6-2.2,3.1c0.8-0.1,1.5-0.5,1.8-0.7C49.1,24.9,50,24,49.9,22.8L49.9,22.8z M61.3,22.6h-3.7
			c-0.1-1.2-0.2-2.5-0.5-3.7c0-0.1-0.1-0.2-0.3-0.2H56c-0.1,0-0.1,0-0.2,0.1c0,0.1-0.1,0.1-0.1,0.2c0.2,1.2,0.4,2.4,0.5,3.6h-3.5
			c-0.1,0-0.2,0-0.2,0.1c-0.1,0.1-0.1,0.1-0.1,0.2v0.8c0,0.1,0,0.2,0.1,0.2c0.1,0.1,0.1,0.1,0.2,0.1h3.6c0,0.2,0,0.4,0,0.5
			c0,1,0,2-0.2,3c0,0.1,0,0.2,0.1,0.2c0.1,0.1,0.1,0.1,0.2,0.1h0.8c0.2,0,0.3-0.1,0.3-0.3c0.1-1,0.2-2,0.2-3c0-0.2,0-0.3,0-0.5h3.6
			c0.1,0,0.2,0,0.2-0.1c0.1-0.1,0.1-0.1,0.1-0.2v-0.8c0-0.1,0-0.2-0.1-0.2C61.4,22.7,61.3,22.7,61.3,22.6L61.3,22.6L61.3,22.6z"/>
		
			<radialGradient id="SVGID_1_" cx="-1819.8052" cy="1893.2842" r="2.6339" gradientTransform="matrix(16.0216 0 0 -16.0203 29212.0488 30348.3047)" gradientUnits="userSpaceOnUse">
			<stop  offset="1.000000e-02" style="stop-color:#FFFFFF"/>
			<stop  offset="4.000000e-02" style="stop-color:#C6FFFF"/>
			<stop  offset="9.000000e-02" style="stop-color:#80FFFF"/>
			<stop  offset="0.13" style="stop-color:#49FFFF"/>
			<stop  offset="0.17" style="stop-color:#21FFFF"/>
			<stop  offset="0.2" style="stop-color:#09FFFF"/>
			<stop  offset="0.22" style="stop-color:#00FFFF"/>
			<stop  offset="0.28" style="stop-color:#01F6FF;stop-opacity:0.96"/>
			<stop  offset="0.39" style="stop-color:#04DEFF;stop-opacity:0.87"/>
			<stop  offset="0.53" style="stop-color:#08B6FF;stop-opacity:0.71"/>
			<stop  offset="0.69" style="stop-color:#0E7FFF;stop-opacity:0.5"/>
			<stop  offset="0.87" style="stop-color:#1639FF;stop-opacity:0.22"/>
			<stop  offset="1" style="stop-color:#1C00FF;stop-opacity:0"/>
		</radialGradient>
		<path class="st2" d="M56.7,17C53.2,8.3,45.2,2.4,35.9,1.4c-9.3-0.9-18.3,3.3-23.5,11.1c-0.1,0.1-0.1,0.2,0,0.3
			c0,0.1,0.1,0.2,0.2,0.2l0.7,0.2c0,0,0.1,0,0.1,0c0.1,0,0.2-0.1,0.3-0.2C18.1,6.5,25.5,2.6,33.4,2.6c9.6,0,18.2,5.7,22,14.5
			c0.1,0.1,0.2,0.2,0.3,0.2h0.8c0.1,0,0.2,0,0.2-0.1C56.7,17.1,56.7,17,56.7,17z"/>
	</g>
	<path class="st3" d="M103.6,19.2c1.2,0,2.2,0.5,2.9,1.4h0v-1.2h1.6v8.4h-1.6v-1.3h0c-0.6,1-1.6,1.5-2.8,1.5c-2.4,0-4.4-1.8-4.4-4.3
		C99.2,21.1,101.1,19.2,103.6,19.2L103.6,19.2z M78.6,19.2c2.3,0,4.5,1.8,4.4,4.5c0,2.3-2,4.4-4.7,4.3C76,27.9,74,25.9,74,23.6
		C74.1,21.1,76.1,19.2,78.6,19.2z M91.3,19.2c1.4,0,2.5,1,2.6,2.4h-1.6c-0.1-0.6-0.4-1-1.1-1c-0.6,0-1,0.4-1,0.9
		c0,0.7,0.7,0.9,1.6,1.2c1.2,0.4,2.3,1.1,2.3,2.6c0,1.6-1.2,2.7-2.8,2.7c-1.5,0-3-1-3-3h1.6c0.1,1,0.6,1.5,1.4,1.5
		c0.7,0,1.2-0.5,1.2-1.1c0-0.6-0.4-1-1.4-1.3c-2.1-0.6-2.4-1.5-2.4-2.5C88.6,20.2,89.9,19.2,91.3,19.2z M65.2,16.6
		c0.9,0,1.6,0.7,1.6,1.6v2.1h0c0.5-0.7,1.3-1.1,2.3-1.1c2,0,3.5,1.3,3.5,3.6v5H71v-4.5c0-1.8-0.7-2.6-2.1-2.6c-1.4,0-2.2,1-2.2,2.6
		v4.5h-1.6L65.2,16.6L65.2,16.6z M86.4,16.6v2.8h1.4v1.4h-1.4v6.9c-0.9,0-1.6-0.7-1.6-1.6v-5.4h-0.6v-1.4h0.6v-2.8L86.4,16.6
		L86.4,16.6z M97.3,16.6v2.8h1.4v1.4h-1.4v6.9c-0.9,0-1.6-0.7-1.6-1.6v-5.4h-0.6v-1.4h0.6v-2.8L97.3,16.6L97.3,16.6z M113.7,19.2
		v1.6c-1.4,0-2.1,0.9-2.1,2.3v3.1c0,0.9-0.7,1.6-1.6,1.6v-8.4h1.5v0.8h0C111.9,19.6,112.6,19.3,113.7,19.2L113.7,19.2z M78.5,20.6
		c-1.8,0-3.3,1.7-2.8,3.7c0.3,1.3,1.5,2.3,2.9,2.2c1.6,0,2.9-1.3,2.9-3C81.5,22,80.2,20.6,78.5,20.6L78.5,20.6z M103.6,20.6
		c-1.7,0-3,1.5-2.8,3.3c0.1,1.5,1.3,2.6,2.8,2.7c1.7,0,3-1.3,3-2.9C106.5,22,105.3,20.6,103.6,20.6z"/>
</g>
</svg>
